<?xml version="1.0" encoding="utf-8" standalone="no"?>
<!DOCTYPE svg PUBLIC "-//W3C//DTD SVG 1.1//EN"
  "http://www.w3.org/Graphics/SVG/1.1/DTD/svg11.dtd">
<svg xmlns:xlink="http://www.w3.org/1999/xlink" width="486.515671pt" height="284.864908pt" viewBox="0 0 486.515671 284.864908" xmlns="http://www.w3.org/2000/svg" version="1.1">
 <metadata>
  <rdf:RDF xmlns:dc="http://purl.org/dc/elements/1.1/" xmlns:cc="http://creativecommons.org/ns#" xmlns:rdf="http://www.w3.org/1999/02/22-rdf-syntax-ns#">
   <cc:Work>
    <dc:type rdf:resource="http://purl.org/dc/dcmitype/StillImage"/>
    <dc:format>image/svg+xml</dc:format>
    <dc:creator>
     <cc:Agent>
      <dc:title>Matplotlib v3.11.1, https://matplotlib.org/</dc:title>
     </cc:Agent>
    </dc:creator>
   </cc:Work>
  </rdf:RDF>
 </metadata>
 <defs>
  <style type="text/css">*{stroke-linejoin: round; stroke-linecap: butt}</style>
 </defs>
 <g id="figure_1">
  <g id="patch_1">
   <path d="M 0 284.864908 
L 486.515671 284.864908 
L 486.515671 0 
L 0 0 
z
" style="fill: #ffffff"/>
  </g>
  <g id="axes_1">
   <g id="patch_2">
    <path d="M 40.365781 225.207928 
L 423.775308 225.207928 
L 423.775308 34.102363 
L 40.365781 34.102363 
z
" style="fill: #ffffff"/>
   </g>
   <g id="matplotlib.axis_1">
    <g id="xtick_1">
     <g id="line2d_1">
      <path d="M 57.793487 225.207928 
L 57.793487 34.102363 
" clip-path="url(#paf0ce3fc36)" style="fill: none; stroke: #dddddd; stroke-width: 0.6; stroke-linecap: square"/>
     </g>
     <g id="line2d_2">
      <defs>
       <path id="m2d88221765" d="M 0 0 
L 0 3.5 
" style="stroke: #666666; stroke-width: 0.8"/>
      </defs>
      <g>
       <use xlink:href="#m2d88221765" x="57.793487" y="225.207928" style="fill: #666666; stroke: #666666; stroke-width: 0.8"/>
      </g>
     </g>
     <g id="text_1">
      <text style="font-size: 8.5px; font-family: 'DejaVu Sans'; text-anchor: middle; fill: #666666" x="57.793487" y="238.6666" transform="rotate(-0 57.793487 238.6666)">inn 1</text>
     </g>
    </g>
    <g id="xtick_2">
     <g id="line2d_3">
      <path d="M 104.267369 225.207928 
L 104.267369 34.102363 
" clip-path="url(#paf0ce3fc36)" style="fill: none; stroke: #dddddd; stroke-width: 0.6; stroke-linecap: square"/>
     </g>
     <g id="line2d_4">
      <g>
       <use xlink:href="#m2d88221765" x="104.267369" y="225.207928" style="fill: #666666; stroke: #666666; stroke-width: 0.8"/>
      </g>
     </g>
     <g id="text_2">
      <text style="font-size: 8.5px; font-family: 'DejaVu Sans'; text-anchor: middle; fill: #666666" x="104.267369" y="238.6666" transform="rotate(-0 104.267369 238.6666)">inn 2</text>
     </g>
    </g>
    <g id="xtick_3">
     <g id="line2d_5">
      <path d="M 150.741251 225.207928 
L 150.741251 34.102363 
" clip-path="url(#paf0ce3fc36)" style="fill: none; stroke: #dddddd; stroke-width: 0.6; stroke-linecap: square"/>
     </g>
     <g id="line2d_6">
      <g>
       <use xlink:href="#m2d88221765" x="150.741251" y="225.207928" style="fill: #666666; stroke: #666666; stroke-width: 0.8"/>
      </g>
     </g>
     <g id="text_3">
      <text style="font-size: 8.5px; font-family: 'DejaVu Sans'; text-anchor: middle; fill: #666666" x="150.741251" y="238.6666" transform="rotate(-0 150.741251 238.6666)">inn 3</text>
     </g>
    </g>
    <g id="xtick_4">
     <g id="line2d_7">
      <path d="M 197.215133 225.207928 
L 197.215133 34.102363 
" clip-path="url(#paf0ce3fc36)" style="fill: none; stroke: #dddddd; stroke-width: 0.6; stroke-linecap: square"/>
     </g>
     <g id="line2d_8">
      <g>
       <use xlink:href="#m2d88221765" x="197.215133" y="225.207928" style="fill: #666666; stroke: #666666; stroke-width: 0.8"/>
      </g>
     </g>
     <g id="text_4">
      <text style="font-size: 8.5px; font-family: 'DejaVu Sans'; text-anchor: middle; fill: #666666" x="197.215133" y="238.6666" transform="rotate(-0 197.215133 238.6666)">inn 4</text>
     </g>
    </g>
    <g id="xtick_5">
     <g id="line2d_9">
      <path d="M 243.689015 225.207928 
L 243.689015 34.102363 
" clip-path="url(#paf0ce3fc36)" style="fill: none; stroke: #dddddd; stroke-width: 0.6; stroke-linecap: square"/>
     </g>
     <g id="line2d_10">
      <g>
       <use xlink:href="#m2d88221765" x="243.689015" y="225.207928" style="fill: #666666; stroke: #666666; stroke-width: 0.8"/>
      </g>
     </g>
     <g id="text_5">
      <text style="font-size: 8.5px; font-family: 'DejaVu Sans'; text-anchor: middle; fill: #666666" x="243.689015" y="238.6666" transform="rotate(-0 243.689015 238.6666)">inn 5</text>
     </g>
    </g>
    <g id="xtick_6">
     <g id="line2d_11">
      <path d="M 290.162897 225.207928 
L 290.162897 34.102363 
" clip-path="url(#paf0ce3fc36)" style="fill: none; stroke: #dddddd; stroke-width: 0.6; stroke-linecap: square"/>
     </g>
     <g id="line2d_12">
      <g>
       <use xlink:href="#m2d88221765" x="290.162897" y="225.207928" style="fill: #666666; stroke: #666666; stroke-width: 0.8"/>
      </g>
     </g>
     <g id="text_6">
      <text style="font-size: 8.5px; font-family: 'DejaVu Sans'; text-anchor: middle; fill: #666666" x="290.162897" y="238.6666" transform="rotate(-0 290.162897 238.6666)">inn 6</text>
     </g>
    </g>
    <g id="xtick_7">
     <g id="line2d_13">
      <path d="M 336.636779 225.207928 
L 336.636779 34.102363 
" clip-path="url(#paf0ce3fc36)" style="fill: none; stroke: #dddddd; stroke-width: 0.6; stroke-linecap: square"/>
     </g>
     <g id="line2d_14">
      <g>
       <use xlink:href="#m2d88221765" x="336.636779" y="225.207928" style="fill: #666666; stroke: #666666; stroke-width: 0.8"/>
      </g>
     </g>
     <g id="text_7">
      <text style="font-size: 8.5px; font-family: 'DejaVu Sans'; text-anchor: middle; fill: #666666" x="336.636779" y="238.6666" transform="rotate(-0 336.636779 238.6666)">inn 7</text>
     </g>
    </g>
    <g id="xtick_8">
     <g id="line2d_15">
      <path d="M 383.110661 225.207928 
L 383.110661 34.102363 
" clip-path="url(#paf0ce3fc36)" style="fill: none; stroke: #dddddd; stroke-width: 0.6; stroke-linecap: square"/>
     </g>
     <g id="line2d_16">
      <g>
       <use xlink:href="#m2d88221765" x="383.110661" y="225.207928" style="fill: #666666; stroke: #666666; stroke-width: 0.8"/>
      </g>
     </g>
     <g id="text_8">
      <text style="font-size: 8.5px; font-family: 'DejaVu Sans'; text-anchor: middle; fill: #666666" x="383.110661" y="238.6666" transform="rotate(-0 383.110661 238.6666)">inn 8</text>
     </g>
    </g>
   </g>
   <g id="matplotlib.axis_2">
    <g id="ytick_1">
     <g id="line2d_17">
      <path d="M 40.365781 220.098154 
L 423.775308 220.098154 
" clip-path="url(#paf0ce3fc36)" style="fill: none; stroke: #dddddd; stroke-width: 0.6; stroke-linecap: square"/>
     </g>
     <g id="line2d_18">
      <defs>
       <path id="m1b2b9969c0" d="M 0 0 
L -3.5 0 
" style="stroke: #666666; stroke-width: 0.8"/>
      </defs>
      <g>
       <use xlink:href="#m1b2b9969c0" x="40.365781" y="220.098154" style="fill: #666666; stroke: #666666; stroke-width: 0.8"/>
      </g>
     </g>
     <g id="text_9">
      <text style="font-size: 8.5px; font-family: 'DejaVu Sans'; text-anchor: end; fill: #666666" x="33.365781" y="223.327158" transform="rotate(-0 33.365781 223.327158)">0.0</text>
     </g>
    </g>
    <g id="ytick_2">
     <g id="line2d_19">
      <path d="M 40.365781 194.549281 
L 423.775308 194.549281 
" clip-path="url(#paf0ce3fc36)" style="fill: none; stroke: #dddddd; stroke-width: 0.6; stroke-linecap: square"/>
     </g>
     <g id="line2d_20">
      <g>
       <use xlink:href="#m1b2b9969c0" x="40.365781" y="194.549281" style="fill: #666666; stroke: #666666; stroke-width: 0.8"/>
      </g>
     </g>
     <g id="text_10">
      <text style="font-size: 8.5px; font-family: 'DejaVu Sans'; text-anchor: end; fill: #666666" x="33.365781" y="197.778285" transform="rotate(-0 33.365781 197.778285)">2.5</text>
     </g>
    </g>
    <g id="ytick_3">
     <g id="line2d_21">
      <path d="M 40.365781 169.000409 
L 423.775308 169.000409 
" clip-path="url(#paf0ce3fc36)" style="fill: none; stroke: #dddddd; stroke-width: 0.6; stroke-linecap: square"/>
     </g>
     <g id="line2d_22">
      <g>
       <use xlink:href="#m1b2b9969c0" x="40.365781" y="169.000409" style="fill: #666666; stroke: #666666; stroke-width: 0.8"/>
      </g>
     </g>
     <g id="text_11">
      <text style="font-size: 8.5px; font-family: 'DejaVu Sans'; text-anchor: end; fill: #666666" x="33.365781" y="172.229413" transform="rotate(-0 33.365781 172.229413)">5.0</text>
     </g>
    </g>
    <g id="ytick_4">
     <g id="line2d_23">
      <path d="M 40.365781 143.451537 
L 423.775308 143.451537 
" clip-path="url(#paf0ce3fc36)" style="fill: none; stroke: #dddddd; stroke-width: 0.6; stroke-linecap: square"/>
     </g>
     <g id="line2d_24">
      <g>
       <use xlink:href="#m1b2b9969c0" x="40.365781" y="143.451537" style="fill: #666666; stroke: #666666; stroke-width: 0.8"/>
      </g>
     </g>
     <g id="text_12">
      <text style="font-size: 8.5px; font-family: 'DejaVu Sans'; text-anchor: end; fill: #666666" x="33.365781" y="146.680541" transform="rotate(-0 33.365781 146.680541)">7.5</text>
     </g>
    </g>
    <g id="ytick_5">
     <g id="line2d_25">
      <path d="M 40.365781 117.902664 
L 423.775308 117.902664 
" clip-path="url(#paf0ce3fc36)" style="fill: none; stroke: #dddddd; stroke-width: 0.6; stroke-linecap: square"/>
     </g>
     <g id="line2d_26">
      <g>
       <use xlink:href="#m1b2b9969c0" x="40.365781" y="117.902664" style="fill: #666666; stroke: #666666; stroke-width: 0.8"/>
      </g>
     </g>
     <g id="text_13">
      <text style="font-size: 8.5px; font-family: 'DejaVu Sans'; text-anchor: end; fill: #666666" x="33.365781" y="121.131668" transform="rotate(-0 33.365781 121.131668)">10.0</text>
     </g>
    </g>
    <g id="ytick_6">
     <g id="line2d_27">
      <path d="M 40.365781 92.353792 
L 423.775308 92.353792 
" clip-path="url(#paf0ce3fc36)" style="fill: none; stroke: #dddddd; stroke-width: 0.6; stroke-linecap: square"/>
     </g>
     <g id="line2d_28">
      <g>
       <use xlink:href="#m1b2b9969c0" x="40.365781" y="92.353792" style="fill: #666666; stroke: #666666; stroke-width: 0.8"/>
      </g>
     </g>
     <g id="text_14">
      <text style="font-size: 8.5px; font-family: 'DejaVu Sans'; text-anchor: end; fill: #666666" x="33.365781" y="95.582796" transform="rotate(-0 33.365781 95.582796)">12.5</text>
     </g>
    </g>
    <g id="ytick_7">
     <g id="line2d_29">
      <path d="M 40.365781 66.80492 
L 423.775308 66.80492 
" clip-path="url(#paf0ce3fc36)" style="fill: none; stroke: #dddddd; stroke-width: 0.6; stroke-linecap: square"/>
     </g>
     <g id="line2d_30">
      <g>
       <use xlink:href="#m1b2b9969c0" x="40.365781" y="66.80492" style="fill: #666666; stroke: #666666; stroke-width: 0.8"/>
      </g>
     </g>
     <g id="text_15">
      <text style="font-size: 8.5px; font-family: 'DejaVu Sans'; text-anchor: end; fill: #666666" x="33.365781" y="70.033924" transform="rotate(-0 33.365781 70.033924)">15.0</text>
     </g>
    </g>
    <g id="ytick_8">
     <g id="line2d_31">
      <path d="M 40.365781 41.256048 
L 423.775308 41.256048 
" clip-path="url(#paf0ce3fc36)" style="fill: none; stroke: #dddddd; stroke-width: 0.6; stroke-linecap: square"/>
     </g>
     <g id="line2d_32">
      <g>
       <use xlink:href="#m1b2b9969c0" x="40.365781" y="41.256048" style="fill: #666666; stroke: #666666; stroke-width: 0.8"/>
      </g>
     </g>
     <g id="text_16">
      <text style="font-size: 8.5px; font-family: 'DejaVu Sans'; text-anchor: end; fill: #666666" x="33.365781" y="44.485051" transform="rotate(-0 33.365781 44.485051)">17.5</text>
     </g>
    </g>
    <g id="text_17">
     <text style="font-size: 9px; font-family: 'DejaVu Sans'; text-anchor: middle; fill: #222222" x="8.277891" y="129.655146" transform="rotate(-90 8.277891 129.655146)">runs</text>
    </g>
   </g>
   <g id="FillBetweenPolyCollection_1">
    <defs>
     <path id="m1575ec9ec5" d="M 57.793487 -136.303596 
L 57.793487 -64.766754 
L 81.030428 -64.766754 
L 104.267369 -64.766754 
L 127.50431 -64.766754 
L 150.741251 -64.766754 
L 173.978192 -74.986303 
L 197.215133 -95.425401 
L 220.452074 -115.864499 
L 243.689015 -136.303596 
L 266.925956 -156.742694 
L 290.162897 -156.742694 
L 313.399838 -156.742694 
L 336.636779 -156.742694 
L 359.87372 -166.962243 
L 383.110661 -166.962243 
L 406.347602 -197.62089 
L 406.347602 -207.840439 
L 406.347602 -207.840439 
L 383.110661 -177.181792 
L 359.87372 -187.401341 
L 336.636779 -182.291567 
L 313.399838 -187.401341 
L 290.162897 -192.511115 
L 266.925956 -192.511115 
L 243.689015 -177.181792 
L 220.452074 -161.852469 
L 197.215133 -141.413371 
L 173.978192 -126.084047 
L 150.741251 -120.974273 
L 127.50431 -126.084047 
L 104.267369 -131.193822 
L 81.030428 -136.303596 
L 57.793487 -136.303596 
z
" style="stroke: #0072b2; stroke-opacity: 0.09"/>
    </defs>
    <g clip-path="url(#paf0ce3fc36)">
     <use xlink:href="#m1575ec9ec5" x="0" y="284.864908" style="fill: #0072b2; fill-opacity: 0.09; stroke: #0072b2; stroke-opacity: 0.09"/>
    </g>
   </g>
   <g id="line2d_33">
    <path d="M 40.365781 148.561311 
L 423.775308 148.561311 
" clip-path="url(#paf0ce3fc36)" style="fill: none; stroke-dasharray: 1,1.65; stroke-dashoffset: 0; stroke: #666666"/>
   </g>
   <g id="patch_3">
    <path d="M 40.365781 225.207928 
L 40.365781 34.102363 
" style="fill: none; stroke: #666666; stroke-linejoin: miter; stroke-linecap: square"/>
   </g>
   <g id="patch_4">
    <path d="M 40.365781 225.207928 
L 423.775308 225.207928 
" style="fill: none; stroke: #666666; stroke-linejoin: miter; stroke-linecap: square"/>
   </g>
   <g id="text_18">
    <text style="font-size: 8.5px; font-family: 'DejaVu Sans'; text-anchor: start; fill: #666666" x="408.671296" y="150.769651" transform="rotate(-0 408.671296 150.769651)">pregame total 7.0</text>
   </g>
   <g id="line2d_34">
    <path d="M 57.793487 148.561311 
L 81.030428 148.561311 
L 104.267369 153.671086 
L 127.50431 158.78086 
L 150.741251 163.890635 
L 173.978192 158.78086 
L 197.215133 143.451537 
L 220.452074 123.012439 
L 243.689015 107.683116 
L 266.925956 92.353792 
L 290.162897 92.353792 
L 313.399838 97.463567 
L 336.636779 102.573341 
L 359.87372 97.463567 
L 383.110661 107.683116 
L 406.347602 77.024469 
" clip-path="url(#paf0ce3fc36)" style="fill: none; stroke: #0072b2; stroke-width: 2.3; stroke-linecap: square"/>
    <defs>
     <path id="m893d9ca7dc" d="M 0 2.25 
C 0.596707 2.25 1.169055 2.012926 1.59099 1.59099 
C 2.012926 1.169055 2.25 0.596707 2.25 0 
C 2.25 -0.596707 2.012926 -1.169055 1.59099 -1.59099 
C 1.169055 -2.012926 0.596707 -2.25 0 -2.25 
C -0.596707 -2.25 -1.169055 -2.012926 -1.59099 -1.59099 
C -2.012926 -1.169055 -2.25 -0.596707 -2.25 0 
C -2.25 0.596707 -2.012926 1.169055 -1.59099 1.59099 
C -1.169055 2.012926 -0.596707 2.25 0 2.25 
z
" style="stroke: #0072b2"/>
    </defs>
    <g clip-path="url(#paf0ce3fc36)">
     <use xlink:href="#m893d9ca7dc" x="57.793487" y="148.561311" style="fill: #0072b2; stroke: #0072b2"/>
     <use xlink:href="#m893d9ca7dc" x="81.030428" y="148.561311" style="fill: #0072b2; stroke: #0072b2"/>
     <use xlink:href="#m893d9ca7dc" x="104.267369" y="153.671086" style="fill: #0072b2; stroke: #0072b2"/>
     <use xlink:href="#m893d9ca7dc" x="127.50431" y="158.78086" style="fill: #0072b2; stroke: #0072b2"/>
     <use xlink:href="#m893d9ca7dc" x="150.741251" y="163.890635" style="fill: #0072b2; stroke: #0072b2"/>
     <use xlink:href="#m893d9ca7dc" x="173.978192" y="158.78086" style="fill: #0072b2; stroke: #0072b2"/>
     <use xlink:href="#m893d9ca7dc" x="197.215133" y="143.451537" style="fill: #0072b2; stroke: #0072b2"/>
     <use xlink:href="#m893d9ca7dc" x="220.452074" y="123.012439" style="fill: #0072b2; stroke: #0072b2"/>
     <use xlink:href="#m893d9ca7dc" x="243.689015" y="107.683116" style="fill: #0072b2; stroke: #0072b2"/>
     <use xlink:href="#m893d9ca7dc" x="266.925956" y="92.353792" style="fill: #0072b2; stroke: #0072b2"/>
     <use xlink:href="#m893d9ca7dc" x="290.162897" y="92.353792" style="fill: #0072b2; stroke: #0072b2"/>
     <use xlink:href="#m893d9ca7dc" x="313.399838" y="97.463567" style="fill: #0072b2; stroke: #0072b2"/>
     <use xlink:href="#m893d9ca7dc" x="336.636779" y="102.573341" style="fill: #0072b2; stroke: #0072b2"/>
     <use xlink:href="#m893d9ca7dc" x="359.87372" y="97.463567" style="fill: #0072b2; stroke: #0072b2"/>
     <use xlink:href="#m893d9ca7dc" x="383.110661" y="107.683116" style="fill: #0072b2; stroke: #0072b2"/>
     <use xlink:href="#m893d9ca7dc" x="406.347602" y="77.024469" style="fill: #0072b2; stroke: #0072b2"/>
    </g>
   </g>
   <g id="line2d_35">
    <path d="M 57.793487 220.098154 
L 81.030428 220.098154 
L 104.267369 220.098154 
L 127.50431 220.098154 
L 150.741251 220.098154 
L 173.978192 209.878605 
L 197.215133 189.439507 
L 220.452074 169.000409 
L 243.689015 148.561311 
L 266.925956 128.122213 
L 290.162897 128.122213 
L 313.399838 128.122213 
L 336.636779 128.122213 
L 359.87372 117.902664 
L 383.110661 117.902664 
L 406.347602 87.244018 
" clip-path="url(#paf0ce3fc36)" style="fill: none; stroke: #d55e00; stroke-width: 2.3; stroke-linecap: square"/>
    <defs>
     <path id="mfb6fcfc3d2" d="M -2.25 2.25 
L 2.25 2.25 
L 2.25 -2.25 
L -2.25 -2.25 
z
" style="stroke: #d55e00; stroke-linejoin: miter"/>
    </defs>
    <g clip-path="url(#paf0ce3fc36)">
     <use xlink:href="#mfb6fcfc3d2" x="57.793487" y="220.098154" style="fill: #d55e00; stroke: #d55e00; stroke-linejoin: miter"/>
     <use xlink:href="#mfb6fcfc3d2" x="81.030428" y="220.098154" style="fill: #d55e00; stroke: #d55e00; stroke-linejoin: miter"/>
     <use xlink:href="#mfb6fcfc3d2" x="104.267369" y="220.098154" style="fill: #d55e00; stroke: #d55e00; stroke-linejoin: miter"/>
     <use xlink:href="#mfb6fcfc3d2" x="127.50431" y="220.098154" style="fill: #d55e00; stroke: #d55e00; stroke-linejoin: miter"/>
     <use xlink:href="#mfb6fcfc3d2" x="150.741251" y="220.098154" style="fill: #d55e00; stroke: #d55e00; stroke-linejoin: miter"/>
     <use xlink:href="#mfb6fcfc3d2" x="173.978192" y="209.878605" style="fill: #d55e00; stroke: #d55e00; stroke-linejoin: miter"/>
     <use xlink:href="#mfb6fcfc3d2" x="197.215133" y="189.439507" style="fill: #d55e00; stroke: #d55e00; stroke-linejoin: miter"/>
     <use xlink:href="#mfb6fcfc3d2" x="220.452074" y="169.000409" style="fill: #d55e00; stroke: #d55e00; stroke-linejoin: miter"/>
     <use xlink:href="#mfb6fcfc3d2" x="243.689015" y="148.561311" style="fill: #d55e00; stroke: #d55e00; stroke-linejoin: miter"/>
     <use xlink:href="#mfb6fcfc3d2" x="266.925956" y="128.122213" style="fill: #d55e00; stroke: #d55e00; stroke-linejoin: miter"/>
     <use xlink:href="#mfb6fcfc3d2" x="290.162897" y="128.122213" style="fill: #d55e00; stroke: #d55e00; stroke-linejoin: miter"/>
     <use xlink:href="#mfb6fcfc3d2" x="313.399838" y="128.122213" style="fill: #d55e00; stroke: #d55e00; stroke-linejoin: miter"/>
     <use xlink:href="#mfb6fcfc3d2" x="336.636779" y="128.122213" style="fill: #d55e00; stroke: #d55e00; stroke-linejoin: miter"/>
     <use xlink:href="#mfb6fcfc3d2" x="359.87372" y="117.902664" style="fill: #d55e00; stroke: #d55e00; stroke-linejoin: miter"/>
     <use xlink:href="#mfb6fcfc3d2" x="383.110661" y="117.902664" style="fill: #d55e00; stroke: #d55e00; stroke-linejoin: miter"/>
     <use xlink:href="#mfb6fcfc3d2" x="406.347602" y="87.244018" style="fill: #d55e00; stroke: #d55e00; stroke-linejoin: miter"/>
    </g>
   </g>
   <g id="patch_5">
    <path d="M 386.151047 47.251059 
Q 395.688446 61.310927 404.472686 74.260501 
" style="fill: none; stroke: #666666; stroke-width: 1.2; stroke-linecap: round"/>
    <path d="M 403.970882 70.492452 
L 404.472686 74.260501 
L 401.157165 72.401115 
z
" style="fill: #666666; stroke: #666666; stroke-width: 1.2; stroke-linecap: round"/>
   </g>
   <g id="text_19">
    <g id="patch_6">
     <path d="M 327.342003 45.596912 
L 427.145284 45.596912 
Q 428.420284 45.596912 428.420284 44.321912 
L 428.420284 23.917928 
Q 428.420284 22.642928 427.145284 22.642928 
L 327.342003 22.642928 
Q 326.067003 22.642928 326.067003 23.917928 
L 326.067003 44.321912 
Q 326.067003 45.596912 327.342003 45.596912 
z
" style="fill: #ffffff; opacity: 0.8"/>
    </g>
    <text style="font-size: 8.5px; font-family: 'DejaVu Sans'; fill: #222222" transform="translate(327.342003 31.226766)">3 runs score →</text>
    <text style="font-size: 8.5px; font-family: 'DejaVu Sans'; fill: #222222" transform="translate(327.342003 41.42909)">the market lifts its total</text>
   </g>
   <g id="patch_7">
    <path d="M 192.579159 259.430631 
Q 166.458651 225.230714 141.016762 191.919322 
" style="fill: none; stroke: #0072b2; stroke-linecap: round"/>
    <path d="M 141.729453 195.65323 
L 141.016762 191.919322 
L 144.431504 193.589514 
z
" style="fill: #0072b2; stroke: #0072b2; stroke-linecap: round"/>
   </g>
   <g id="text_20">
    <text style="font-size: 8.5px; font-family: 'DejaVu Sans'; fill: #0072b2" transform="translate(134.475392 270.329761)">gap = runs the market</text>
    <text style="font-size: 8.5px; font-family: 'DejaVu Sans'; fill: #0072b2" transform="translate(134.475392 280.532085)">still expects (its live over/under)</text>
   </g>
   <g id="text_21">
    <text style="font-weight: 700; font-size: 8.5px; font-family: 'DejaVu Sans'; text-anchor: middle; fill: #222222" x="406.347602" y="67.828792" transform="rotate(-0 406.347602 67.828792)">final: line = score</text>
   </g>
   <g id="text_22">
    <text style="font-weight: 700; font-size: 11px; font-family: 'DejaVu Sans'; fill: #222222" transform="translate(12.401404 10.899355)">Line movement over a game: the live total chases the runs, and meets</text>
    <text style="font-weight: 700; font-size: 11px; font-family: 'DejaVu Sans'; fill: #222222" transform="translate(182.12281 24.102363)">them at the end</text>
   </g>
   <g id="line2d_36">
    <path d="M 406.347602 77.024469 
" clip-path="url(#paf0ce3fc36)" style="fill: none; stroke: #222222; stroke-width: 1.8; stroke-linecap: square"/>
    <defs>
     <path id="mdd8dd2e104" d="M 0 -7.5 
L -1.683855 -2.317627 
L -7.132924 -2.317627 
L -2.724534 0.885255 
L -4.408389 6.067627 
L -0 2.864745 
L 4.408389 6.067627 
L 2.724534 0.885255 
L 7.132924 -2.317627 
L 1.683855 -2.317627 
z
" style="stroke: #222222; stroke-linejoin: bevel"/>
    </defs>
    <g clip-path="url(#paf0ce3fc36)">
     <use xlink:href="#mdd8dd2e104" x="406.347602" y="77.024469" style="fill: #222222; stroke: #222222; stroke-linejoin: bevel"/>
    </g>
   </g>
   <g id="legend_1">
    <g id="line2d_37">
     <path d="M 48.105781 45.36702 
L 56.705781 45.36702 
L 65.305781 45.36702 
" style="fill: none; stroke: #0072b2; stroke-width: 2.3; stroke-linecap: square"/>
     <g>
      <use xlink:href="#m893d9ca7dc" x="56.705781" y="45.36702" style="fill: #0072b2; stroke: #0072b2"/>
     </g>
    </g>
    <g id="text_23">
     <text style="font-size: 8.6px; font-family: 'DejaVu Sans'; text-anchor: start; fill: #222222" x="72.185781" y="48.37702" transform="rotate(-0 72.185781 48.37702)">market's live total  (forecast of final)</text>
    </g>
    <g id="line2d_38">
     <path d="M 48.105781 58.267691 
L 56.705781 58.267691 
L 65.305781 58.267691 
" style="fill: none; stroke: #d55e00; stroke-width: 2.3; stroke-linecap: square"/>
     <g>
      <use xlink:href="#mfb6fcfc3d2" x="56.705781" y="58.267691" style="fill: #d55e00; stroke: #d55e00; stroke-linejoin: miter"/>
     </g>
    </g>
    <g id="text_24">
     <text style="font-size: 8.6px; font-family: 'DejaVu Sans'; text-anchor: start; fill: #222222" x="72.185781" y="61.277691" transform="rotate(-0 72.185781 61.277691)">runs actually scored</text>
    </g>
   </g>
  </g>
 </g>
 <defs>
  <clipPath id="paf0ce3fc36">
   <rect x="40.365781" y="34.102363" width="383.409526" height="191.105565"/>
  </clipPath>
 </defs>
</svg>
